<svg id="Layer_1" data-name="Layer 1" xmlns="http://www.w3.org/2000/svg" viewBox="0 0 164.8 38.29"><title>s-logo</title><text transform="translate(50.15 30.47)" style="font-size:36px;fill:#fff;font-family:Ubuntu-MediumItalic, Ubuntu;font-style:italic">etheris</text><path d="M38.24,18.52,21.33,1.61a2.09,2.09,0,0,0-3,0L1.47,18.52a2.09,2.09,0,0,0,0,3L18.38,38.39h0a2.09,2.09,0,0,0,3,0L38.24,21.48A2.09,2.09,0,0,0,38.24,18.52ZM23.45,15.35l-9.53-2.6,5.81-9.92ZM12.81,12.63l-.08.06,0,0L4.95,17.21l12.5-12.5Zm0,1.24,2.11,7.92L2.94,19.55Zm1-.08,10,2.73L26,23.85,16,22ZM27,23.68l-2-6.85L36.52,20Zm-1.27,1.17L20,36.94l-3.7-13.86Zm1.14,0,9.58-3.71L21.58,36Zm9.59-5.91L24.61,15.67,21,3.42ZM2.7,20.54l12.48,2.33,3.69,13.84Z" transform="translate(-0.85 -0.71)" style="fill:#fff"/></svg>